<?xml version="1.0" standalone="no"?>
<!DOCTYPE svg PUBLIC "-//W3C//DTD SVG 20010904//EN"
 "http://www.w3.org/TR/2001/REC-SVG-20010904/DTD/svg10.dtd">
<svg version="1.0" xmlns="http://www.w3.org/2000/svg"
 width="2410.000000pt" height="2410.000000pt" viewBox="0 0 2410.000000 2410.000000"
 preserveAspectRatio="xMidYMid meet">
<metadata>
Created by potrace 1.11, written by Peter Selinger 2001-2013
</metadata>
<g transform="translate(0.000000,2410.000000) scale(0.100000,-0.100000)"
fill="#000000" stroke="none">
<path d="M9365 23799 c-571 -78 -1075 -554 -1289 -1216 -80 -251 -110 -452
-110 -738 0 -223 10 -330 51 -515 163 -748 652 -1294 1276 -1427 113 -24 371
-24 484 0 420 89 784 367 1031 786 140 238 242 543 283 851 17 123 17 487 0
610 -115 849 -631 1494 -1309 1635 -93 20 -320 28 -417 14z"/>
<path d="M12995 23799 c-222 -28 -467 -129 -661 -272 -95 -70 -269 -245 -343
-346 -199 -269 -318 -563 -377 -926 -14 -81 -18 -166 -18 -325 0 -159 4 -244
18 -325 74 -460 253 -825 545 -1116 115 -115 205 -185 318 -249 438 -251 938
-251 1376 0 113 64 203 134 318 249 292 291 471 656 545 1116 14 81 18 166 18
325 0 159 -4 244 -18 325 -59 363 -178 657 -377 926 -74 101 -248 276 -343
346 -295 218 -653 315 -1001 272z"/>
<path d="M17925 23684 c-182 -18 -255 -28 -355 -45 -1254 -223 -2257 -1188
-2499 -2406 -46 -233 -56 -338 -56 -593 0 -255 10 -360 56 -590 238 -1197
1201 -2147 2426 -2395 234 -47 359 -59 638 -59 279 0 404 12 638 59 1121 227
2033 1047 2357 2118 44 146 91 366 111 527 18 138 18 542 0 680 -89 696 -382
1299 -874 1792 -489 490 -1131 802 -1840 894 -115 14 -515 27 -602 18z"/>
<path d="M6240 22384 c-325 -40 -639 -194 -884 -432 -269 -263 -460 -646 -521
-1047 -153 -1001 442 -1949 1319 -2100 115 -20 347 -20 462 0 487 84 912 423
1149 917 281 586 254 1313 -69 1862 -245 416 -612 689 -1051 781 -77 16 -330
28 -405 19z"/>
<path d="M3890 19854 c-14 -2 -56 -9 -95 -15 -230 -37 -456 -158 -641 -343
-224 -225 -356 -502 -399 -836 -19 -144 -19 -236 0 -380 18 -141 44 -244 91
-364 74 -186 170 -333 308 -472 180 -179 370 -285 618 -341 101 -22 355 -22
456 0 248 56 438 162 618 341 224 225 356 502 399 836 19 144 19 236 0 380
-18 141 -44 244 -91 364 -74 186 -170 333 -308 472 -180 180 -377 288 -618
340 -71 15 -288 27 -338 18z"/>
<path d="M10855 19803 c-953 -21 -1879 -200 -2688 -517 -910 -357 -1695 -782
-2271 -1230 -284 -221 -611 -532 -809 -768 -494 -589 -845 -1257 -1108 -2108
-219 -706 -435 -1824 -494 -2548 -75 -915 -16 -2123 166 -3412 336 -2379 1036
-4643 1934 -6250 512 -918 1090 -1624 1710 -2090 151 -113 330 -229 430 -278
147 -72 390 -160 510 -186 200 -42 270 -49 520 -50 232 -1 242 0 293 23 28 13
66 39 82 58 l30 34 0 2264 0 2265 3260 0 3260 0 0 1875 0 1875 -3260 0 -3260
0 0 1860 0 1860 3238 0 c3623 0 3280 -8 3443 76 210 108 401 294 629 614 54
75 140 216 172 280 41 81 130 326 162 446 81 299 104 490 113 929 6 319 3 364
-43 650 -120 733 -411 1490 -811 2104 -323 497 -765 954 -1202 1244 -165 109
-233 149 -437 250 -764 382 -1643 617 -2629 702 -177 15 -682 36 -780 33 -27
-1 -99 -3 -160 -5z"/>
</g>
</svg>
