<?xml version="1.0" standalone="no"?>
<!DOCTYPE svg PUBLIC "-//W3C//DTD SVG 20010904//EN"
 "http://www.w3.org/TR/2001/REC-SVG-20010904/DTD/svg10.dtd">
<svg version="1.0" xmlns="http://www.w3.org/2000/svg"
 width="700.000000pt" height="700.000000pt" viewBox="0 0 700.000000 700.000000"
 preserveAspectRatio="xMidYMid meet">
<metadata>
Created by potrace 1.14, written by Peter Selinger 2001-2017
</metadata>
<g transform="translate(0.000000,700.000000) scale(0.100000,-0.100000)"
fill="#000000" stroke="none">
<path d="M4127 6408 c-194 -41 -356 -314 -349 -588 7 -222 126 -375 286 -364
89 6 185 73 258 179 207 304 135 750 -127 778 -16 2 -47 0 -68 -5z"/>
<path d="M3348 6405 c-2 -2 -16 -5 -33 -7 -148 -19 -267 -239 -252 -466 15
-217 124 -374 272 -389 179 -19 319 176 318 442 0 176 -91 352 -207 400 -32
13 -92 26 -98 20z"/>
<path d="M2494 6237 c-107 -52 -167 -162 -167 -312 -1 -179 87 -341 222 -409
167 -85 334 7 375 207 26 126 -2 268 -75 374 -67 96 -149 150 -246 159 -48 4
-67 1 -109 -19z"/>
<path d="M4990 6181 c-101 -27 -186 -77 -271 -161 -162 -160 -240 -371 -209
-563 57 -359 467 -424 751 -120 126 135 192 295 192 463 0 133 -38 230 -120
308 -85 80 -213 107 -343 73z"/>
<path d="M1912 5829 c-74 -14 -133 -69 -153 -143 -47 -170 57 -375 221 -437
60 -23 105 -24 151 -5 161 67 176 312 29 479 -72 81 -164 121 -248 106z"/>
<path d="M3197 5424 c-1 -1 -49 -5 -107 -8 -105 -6 -121 -8 -215 -22 -27 -5
-54 -9 -60 -9 -105 -14 -322 -82 -430 -135 -385 -186 -655 -587 -774 -1150
-22 -102 -28 -136 -36 -196 -3 -22 -7 -55 -10 -74 -14 -103 -20 -239 -20 -450
0 -304 10 -410 66 -685 55 -266 169 -621 275 -853 13 -29 24 -55 24 -58 0 -12
153 -310 210 -409 192 -333 411 -606 576 -718 52 -35 131 -65 166 -62 38 3 72
28 91 67 15 29 16 61 12 253 -3 121 -7 243 -9 270 -2 28 -7 97 -11 154 -4 57
-8 111 -10 120 -1 9 -6 61 -10 116 -3 55 -8 116 -10 135 -2 19 -6 71 -10 115
-3 44 -8 94 -10 110 -15 119 -16 198 -3 206 7 5 249 9 538 9 330 0 539 4 562
10 48 14 91 50 114 97 24 51 30 360 8 434 -17 57 -77 113 -132 124 -20 4 -244
6 -497 5 -488 -2 -620 -2 -647 -1 -22 1 -33 32 -43 121 -12 103 -16 137 -20
180 -3 25 -7 61 -10 80 -4 35 -20 178 -31 280 -3 30 -7 66 -9 80 -1 14 -6 52
-10 85 -4 33 -10 90 -15 128 -4 37 -7 75 -5 85 2 9 4 23 4 30 2 25 64 71 105
78 23 4 388 8 811 9 424 0 786 4 805 8 19 4 59 13 89 18 127 25 279 91 361
157 69 55 107 101 142 171 27 54 33 78 35 140 8 288 -226 548 -664 739 -226
99 -411 147 -753 197 -71 11 -425 26 -433 19z"/>
</g>
</svg>
