<?xml version="1.0" encoding="UTF-8"?>
<svg width="1024px" height="1024px" viewBox="0 0 1024 1024" version="1.1" xmlns="http://www.w3.org/2000/svg" xmlns:xlink="http://www.w3.org/1999/xlink">
    <title>Foot</title>
    <g id="Foot" stroke="none" stroke-width="1" fill="none" fill-rule="evenodd">
        <path d="M536.746991,234.053895 C598.247966,241.600124 649.615049,262.101243 683.724498,285.011726 C729.240511,313.929138 738.818359,349.223802 738.818359,368.451911 C738.818359,408.549186 691.610759,442.529115 617.195955,443.175745 L614.937413,443.185555 L610.300088,443.189438 L605.444832,443.199565 L595.131927,443.229408 L584.101504,443.256801 L578.349348,443.263866 L572.456365,443.263866 L564.364255,443.247601 L560.241739,443.231189 L556.073396,443.208344 L551.863087,443.178377 L547.614674,443.140602 L545.477385,443.118572 L539.018979,443.038883 L534.679418,442.973566 C533.228906,442.950072 531.774617,442.92482 530.317196,442.897694 L525.936174,442.810582 L523.73982,442.762596 L511.53767,442.77359 L498.370933,442.767336 L488.925494,442.749151 L477.876923,442.709983 L420.390219,442.416203 L419.960772,442.420687 L419.495382,442.430472 L418.996055,442.446411 L418.187828,442.483724 L417.612446,442.518777 L417.010156,442.562969 L416.382966,442.617151 L415.732883,442.682175 L415.061917,442.758896 L414.372074,442.848164 L413.665362,442.950833 L413.118216,443.038349 L412.563367,443.134471 L412.001698,443.239575 L411.43409,443.354034 L410.861424,443.478223 L409.99487,443.683568 L409.413417,443.833718 C409.219221,443.885588 409.024697,443.939297 408.829991,443.994909 L408.245474,444.167513 C408.148012,444.197252 408.050542,444.227482 407.953081,444.258212 L407.36858,444.448638 L407.076692,444.54846 L406.49419,444.757551 C406.106569,444.901207 405.720571,445.053471 405.337372,445.21484 L404.764818,445.463787 L404.516321,445.576885 L404.022525,445.811235 C403.940605,445.851209 403.858884,445.891646 403.777373,445.932549 L403.290931,446.183612 L402.810125,446.446128 L402.335543,446.720348 C396.915885,449.942126 392.847371,455.534997 394.14945,465.205615 L394.370183,466.904602 L394.901548,471.194805 L395.535464,476.455138 L396.957027,488.507824 L398.592165,502.632803 L400.136243,516.157659 L401.256561,526.068519 L403.264584,544.023071 L405.200051,561.553432 L406.774246,575.974623 L408.396931,590.997533 C408.462184,591.603423 408.528717,592.201134 408.59653,592.790667 L408.80381,594.53473 C408.874184,595.107906 408.945837,595.672903 409.018771,596.229721 L409.241411,597.875642 C409.656627,600.84818 410.110565,603.573316 410.603226,606.051051 L410.728246,606.544948 L410.858156,607.011457 C410.90237,607.162479 410.947541,607.309061 410.993813,607.451327 L411.136074,607.865303 C412.059783,610.406735 413.432409,611.435222 416.233762,611.804806 L416.688096,611.85781 C416.843594,611.873736 417.003193,611.887961 417.167034,611.90061 L417.671433,611.933953 L418.202149,611.958586 L418.760039,611.975256 L419.345961,611.98471 L419.960772,611.987695 L423.799991,611.952643 L428.258596,611.935779 L432.84237,611.933419 L434.713938,611.925471 L436.242984,611.909821 L437.293998,611.89271 L438.372138,611.869182 L439.492972,611.838215 L441.080737,611.783589 L441.924991,611.749879 L467.811429,611.575898 L522.503338,611.290669 L568.448894,611.076276 L569.782364,611.085796 L571.053101,611.105849 L572.49867,611.143749 L573.416299,611.177363 L574.513726,611.228727 L575.558346,611.290431 L576.35769,611.347207 L577.126097,611.410545 L577.864838,611.48042 L578.575184,611.556808 L578.920106,611.597436 L579.590242,611.683546 L580.23516,611.776107 L581.00778,611.900842 L581.745464,612.035569 L582.312124,612.150513 L582.859285,612.271795 L583.388217,612.399393 L583.900191,612.53328 L584.150215,612.602574 L584.639134,612.74585 L585.114271,612.895353 L585.576898,613.051059 L585.803917,613.131231 L586.360212,613.338398 L586.90242,613.555151 L587.115915,613.644525 L587.537969,613.827839 L587.954501,614.017221 L588.366783,614.212645 L588.776084,614.414086 L589.387229,614.727477 C593.933186,617.11048 597.50088,620.607439 599.932085,625.063267 L600.251815,625.662295 L600.457331,626.063481 L600.656708,626.467589 L600.84992,626.875863 L601.036942,627.289549 L601.305815,627.92295 L601.477253,628.355616 L601.560619,628.575535 L601.72263,629.023325 L601.801268,629.251507 L601.953795,629.717224 L602.135517,630.318512 L602.30726,630.94334 C602.351724,631.113315 602.395118,631.286061 602.437439,631.461785 L602.561175,631.998098 L602.678443,632.553524 L602.842164,633.425225 L602.943153,634.033884 L603.037586,634.666015 L603.125438,635.322864 L603.206684,636.005678 L603.244821,636.35721 L603.31611,637.081305 L603.380729,637.834477 L603.438654,638.617973 L603.489858,639.433038 L603.544375,640.49816 L603.588303,641.616987 L603.615788,642.552352 L603.644194,644.025489 L603.654548,645.056123 L603.658005,646.127046 L603.65714,674.997672 L603.644194,676.558654 L603.626969,677.550247 L603.588303,678.967156 L603.554009,679.866592 L603.489858,681.151105 L603.438654,681.96617 L603.380729,682.749665 L603.31611,683.502838 L603.244821,684.226932 L603.14637,685.093058 L603.037586,685.918128 L602.943153,686.550259 L602.842164,687.158918 L602.789219,687.454834 L602.678443,688.030619 L602.561175,688.586045 L602.437439,689.122358 C602.395118,689.298082 602.351724,689.470827 602.30726,689.640803 L602.135517,690.26563 L601.953795,690.866918 L601.801268,691.332635 L601.642412,691.78609 L601.560619,692.008608 L601.392317,692.446003 L601.305815,692.661192 L601.082728,693.190181 L600.84992,693.70828 L600.656708,694.116554 L600.457331,694.520661 L600.251815,694.921848 L599.932085,695.520875 C597.50088,699.976703 593.933186,703.473663 589.387229,705.856666 L588.776084,706.170057 L588.366783,706.371498 L587.954501,706.566922 L587.537969,706.756303 L587.115915,706.939618 L586.687069,707.11684 L586.469702,707.20316 L585.803917,707.452912 L585.347069,707.61171 L585.114271,707.68879 L584.639134,707.838293 L584.150215,707.981568 L583.900191,708.050863 L583.388217,708.18475 C583.214804,708.228332 583.038564,708.270866 582.859285,708.312347 L582.312124,708.43363 L581.745464,708.548574 L581.158032,708.657153 L580.85613,708.709048 L580.23516,708.808035 L579.590242,708.900596 L578.920106,708.986707 L578.045037,709.085235 L577.126097,709.173598 L576.35769,709.236936 L575.558346,709.293712 L574.726795,709.343901 L573.416299,709.40678 L572.49867,709.440394 L571.544386,709.467334 L570.041451,709.495178 L568.989969,709.505326 L567.897385,709.508714 C528.290937,709.508714 488.758564,709.453777 449.300266,709.343901 L449.063827,709.354925 L448.537207,709.369545 L447.93669,709.375351 L446.928141,709.370771 L440.121519,709.260894 L437.103646,709.235158 L435.177112,709.230868 L431.415686,709.246372 L430.178164,709.257912 L429.311379,709.272381 L428.495902,709.294326 L427.980187,709.314216 L427.486422,709.339088 L427.014264,709.369606 L426.563372,709.406436 L426.029142,709.462359 L425.526939,709.530478 C422.738174,709.958464 421.495619,711.051729 421.233134,713.910357 L421.202812,714.320803 L421.192314,714.534827 L421.180433,714.98089 L421.178964,715.213096 L421.183886,715.786862 L421.19865,716.397623 L421.223257,717.045379 L421.257706,717.730129 L421.301999,718.451874 L421.356134,719.210613 L421.420112,720.006348 L421.534534,721.269314 L421.671102,722.615519 L421.829817,724.044961 L421.94793,725.044166 L422.143555,726.612339 L422.826458,733.908476 L423.72101,743.589842 L424.595418,753.20391 L425.236776,760.361247 L425.65699,765.103939 L426.275633,772.169974 L426.679905,776.845921 L427.273439,783.803023 L427.850758,790.686303 L428.226204,795.231008 L428.593804,799.738202 L428.953304,804.206003 L429.476807,810.829729 L429.980647,817.354243 L430.305191,821.645666 L430.774345,827.990721 L431.221537,834.219636 L431.507039,838.304591 L431.849262,843.331364 L432.174739,848.266467 L432.542502,854.062411 L432.773454,857.846963 L432.884568,859.714711 L433.149372,864.310654 L433.395234,868.798763 L433.488164,870.56299 L433.747969,875.746274 L433.905035,879.108281 L434.048892,882.393281 L434.179286,885.599394 L434.29596,888.724739 L434.39866,891.767435 L434.48713,894.725601 L434.561114,897.597357 L434.620358,900.380823 L434.636786,901.288699 L434.664606,903.074116 L434.693602,905.675358 C434.699278,906.356581 434.7033,907.027785 434.705646,907.688809 L434.707635,909.641181 C434.707121,909.961433 434.706183,910.279099 434.704818,910.594161 C434.696351,912.547978 434.619431,914.38749 434.474616,916.114586 L434.388896,917.045501 L434.28973,917.954187 L434.177137,918.840712 C432.964258,927.741294 429.672839,933.216558 424.398129,935.588767 C377.133423,956.845252 225,734.038563 225,532.693367 C225,366.863021 286.75747,269.400051 378.832841,244.262693 L380.661483,243.779397 C419.053248,231.836101 476.058209,226.607322 536.746991,234.053895 Z M774.796484,125.939471 C803.608326,145.373304 806.197994,191.915801 780.580669,229.895047 C754.963344,267.874294 710.839785,282.908322 682.027943,263.474489 C653.216101,244.040656 650.626434,197.498159 676.243759,159.518913 C701.861084,121.539667 745.984642,106.505639 774.796484,125.939471 Z M324.150785,198.251523 C336.140363,220.800641 331.9925,246.453706 314.886273,255.549248 C297.780047,264.64479 274.193236,253.738512 262.203658,231.189395 C250.21408,208.640278 254.361943,182.987213 271.46817,173.891671 C288.574397,164.796129 312.161207,175.702406 324.150785,198.251523 Z M555.663401,144.494842 C565.216499,106.179455 593.378377,80.2093673 618.564715,86.4890267 C643.751053,92.768686 656.424298,128.920114 646.871199,167.2355 C637.3181,205.550887 609.156222,231.520975 583.969884,225.241316 C558.783546,218.961656 546.110302,182.810229 555.663401,144.494842 Z M369.710582,109.571773 C393.054659,103.316747 418.662879,123.191468 426.908141,153.963207 C435.153404,184.734945 422.913396,214.751068 399.569318,221.006095 C376.225241,227.261122 350.617022,207.3864 342.371759,176.614662 C334.126497,145.842924 346.366505,115.8268 369.710582,109.571773 Z M491.111328,87 C515.135715,87 534.611328,115.430356 534.611328,150.500977 C534.611328,185.571598 515.135715,214.001953 491.111328,214.001953 C467.086942,214.001953 447.611328,185.571598 447.611328,150.500977 C447.611328,115.430356 467.086942,87 491.111328,87 Z" fill="#FFFFFF"></path>
    </g>
</svg>